<mxfile host="app.diagrams.net" agent="Mozilla/5.0 (Windows NT 10.0; Win64; x64) AppleWebKit/537.36 (KHTML, like Gecko) Chrome/129.0.0.0 Safari/537.36" version="24.7.17">
  <diagram name="Page-1" id="b5b7bab2-c9e2-2cf4-8b2a-24fd1a2a6d21">
    <mxGraphModel dx="1434" dy="738" grid="1" gridSize="10" guides="1" tooltips="1" connect="1" arrows="1" fold="1" page="1" pageScale="1" pageWidth="827" pageHeight="1169" background="none" math="0" shadow="0">
      <root>
        <mxCell id="0" />
        <mxCell id="1" parent="0" />
        <mxCell id="QkpR4-OSLrmcSBi-XT8--22" value="" style="endArrow=none;html=1;rounded=0;entryX=1;entryY=0.5;entryDx=0;entryDy=0;exitX=0.5;exitY=0.5;exitDx=0;exitDy=0;exitPerimeter=0;" edge="1" parent="1" source="QkpR4-OSLrmcSBi-XT8--16" target="QkpR4-OSLrmcSBi-XT8--9">
          <mxGeometry width="50" height="50" relative="1" as="geometry">
            <mxPoint x="670" y="420" as="sourcePoint" />
            <mxPoint x="720" y="370" as="targetPoint" />
          </mxGeometry>
        </mxCell>
        <mxCell id="6e0c8c40b5770093-72" value="" style="shape=folder;fontStyle=1;spacingTop=10;tabWidth=0;tabHeight=0;tabPosition=left;html=1;rounded=0;shadow=0;comic=0;labelBackgroundColor=none;strokeWidth=1;fillColor=none;fontFamily=Verdana;fontSize=10;align=center;" parent="1" vertex="1">
          <mxGeometry x="630" y="114.5" width="620" height="515.5" as="geometry" />
        </mxCell>
        <mxCell id="QkpR4-OSLrmcSBi-XT8--2" value="&lt;span style=&quot;font-size:26.0pt;font-family:&amp;quot;Times New Roman&amp;quot;,serif;&lt;br/&gt;mso-fareast-font-family:&amp;quot;Times New Roman&amp;quot;;mso-ansi-language:EN-US;mso-fareast-language:&lt;br/&gt;EN-US;mso-bidi-language:AR-SA&quot;&gt;Intelligent Prediction System&amp;nbsp;&lt;/span&gt;" style="text;html=1;align=center;verticalAlign=middle;resizable=0;points=[];autosize=1;strokeColor=none;fillColor=none;" vertex="1" parent="1">
          <mxGeometry x="730" y="140" width="440" height="60" as="geometry" />
        </mxCell>
        <mxCell id="QkpR4-OSLrmcSBi-XT8--3" value="AI Model" style="shape=umlActor;verticalLabelPosition=bottom;verticalAlign=top;html=1;outlineConnect=0;" vertex="1" parent="1">
          <mxGeometry x="1310" y="220" width="30" height="60" as="geometry" />
        </mxCell>
        <mxCell id="QkpR4-OSLrmcSBi-XT8--4" value="User" style="shape=umlActor;verticalLabelPosition=bottom;verticalAlign=top;html=1;outlineConnect=0;" vertex="1" parent="1">
          <mxGeometry x="500" y="220" width="30" height="60" as="geometry" />
        </mxCell>
        <mxCell id="QkpR4-OSLrmcSBi-XT8--5" value="MT5" style="shape=umlActor;verticalLabelPosition=bottom;verticalAlign=top;html=1;outlineConnect=0;" vertex="1" parent="1">
          <mxGeometry x="500" y="510" width="30" height="60" as="geometry" />
        </mxCell>
        <mxCell id="QkpR4-OSLrmcSBi-XT8--8" value="Pattern Recognition" style="ellipse;whiteSpace=wrap;html=1;" vertex="1" parent="1">
          <mxGeometry x="880" y="310" width="120" height="80" as="geometry" />
        </mxCell>
        <mxCell id="QkpR4-OSLrmcSBi-XT8--9" value="Pattern Extraction" style="ellipse;whiteSpace=wrap;html=1;" vertex="1" parent="1">
          <mxGeometry x="880" y="220" width="120" height="80" as="geometry" />
        </mxCell>
        <mxCell id="QkpR4-OSLrmcSBi-XT8--10" value="Sentiment Analysis" style="ellipse;whiteSpace=wrap;html=1;" vertex="1" parent="1">
          <mxGeometry x="880" y="410" width="120" height="80" as="geometry" />
        </mxCell>
        <mxCell id="QkpR4-OSLrmcSBi-XT8--11" value="Prediction" style="ellipse;whiteSpace=wrap;html=1;" vertex="1" parent="1">
          <mxGeometry x="880" y="530" width="120" height="80" as="geometry" />
        </mxCell>
        <mxCell id="QkpR4-OSLrmcSBi-XT8--12" value="" style="endArrow=none;html=1;rounded=0;entryX=1;entryY=0.5;entryDx=0;entryDy=0;exitX=0.5;exitY=0.5;exitDx=0;exitDy=0;exitPerimeter=0;" edge="1" parent="1" source="QkpR4-OSLrmcSBi-XT8--3" target="QkpR4-OSLrmcSBi-XT8--9">
          <mxGeometry width="50" height="50" relative="1" as="geometry">
            <mxPoint x="670" y="420" as="sourcePoint" />
            <mxPoint x="720" y="370" as="targetPoint" />
          </mxGeometry>
        </mxCell>
        <mxCell id="QkpR4-OSLrmcSBi-XT8--14" value="&lt;span style=&quot;background-color: rgb(230, 230, 230);&quot;&gt;Extracts Patterns from Stock Data&lt;/span&gt;" style="text;html=1;align=center;verticalAlign=middle;resizable=0;points=[];autosize=1;strokeColor=none;fillColor=none;fontFamily=Helvetica;fontSize=12;fontColor=default;" vertex="1" parent="1">
          <mxGeometry x="1020" y="230" width="200" height="30" as="geometry" />
        </mxCell>
        <mxCell id="QkpR4-OSLrmcSBi-XT8--15" value="" style="endArrow=none;html=1;rounded=0;entryX=1;entryY=0.5;entryDx=0;entryDy=0;exitX=0.5;exitY=0.5;exitDx=0;exitDy=0;exitPerimeter=0;" edge="1" parent="1" source="QkpR4-OSLrmcSBi-XT8--3" target="QkpR4-OSLrmcSBi-XT8--8">
          <mxGeometry width="50" height="50" relative="1" as="geometry">
            <mxPoint x="670" y="420" as="sourcePoint" />
            <mxPoint x="720" y="370" as="targetPoint" />
          </mxGeometry>
        </mxCell>
        <mxCell id="QkpR4-OSLrmcSBi-XT8--16" value="DB" style="shape=umlActor;verticalLabelPosition=bottom;verticalAlign=top;html=1;outlineConnect=0;" vertex="1" parent="1">
          <mxGeometry x="1360" y="520" width="30" height="60" as="geometry" />
        </mxCell>
        <mxCell id="QkpR4-OSLrmcSBi-XT8--17" value="&lt;span style=&quot;background-color: rgb(230, 230, 230);&quot;&gt;Recognizes Patterns from current market&lt;/span&gt;" style="text;html=1;align=center;verticalAlign=middle;resizable=0;points=[];autosize=1;strokeColor=none;fillColor=none;rotation=-15;fontFamily=Helvetica;fontSize=12;fontColor=default;glass=0;shadow=0;" vertex="1" parent="1">
          <mxGeometry x="1000" y="290" width="240" height="30" as="geometry" />
        </mxCell>
        <mxCell id="QkpR4-OSLrmcSBi-XT8--18" value="" style="endArrow=none;html=1;rounded=0;entryX=1;entryY=0.5;entryDx=0;entryDy=0;exitX=0.5;exitY=0.5;exitDx=0;exitDy=0;exitPerimeter=0;" edge="1" parent="1" source="QkpR4-OSLrmcSBi-XT8--3" target="QkpR4-OSLrmcSBi-XT8--10">
          <mxGeometry width="50" height="50" relative="1" as="geometry">
            <mxPoint x="670" y="420" as="sourcePoint" />
            <mxPoint x="720" y="370" as="targetPoint" />
          </mxGeometry>
        </mxCell>
        <mxCell id="QkpR4-OSLrmcSBi-XT8--19" value="&lt;span style=&quot;background-color: rgb(230, 230, 230);&quot;&gt;Analyzes new &amp;amp; social media&lt;/span&gt;" style="text;html=1;align=center;verticalAlign=middle;resizable=0;points=[];autosize=1;strokeColor=none;fillColor=none;rotation=-30;" vertex="1" parent="1">
          <mxGeometry x="1010" y="357.25" width="180" height="30" as="geometry" />
        </mxCell>
        <mxCell id="QkpR4-OSLrmcSBi-XT8--20" value="" style="endArrow=none;html=1;rounded=0;entryX=1;entryY=0.5;entryDx=0;entryDy=0;exitX=0.5;exitY=0.5;exitDx=0;exitDy=0;exitPerimeter=0;" edge="1" parent="1" source="QkpR4-OSLrmcSBi-XT8--3" target="QkpR4-OSLrmcSBi-XT8--11">
          <mxGeometry width="50" height="50" relative="1" as="geometry">
            <mxPoint x="670" y="420" as="sourcePoint" />
            <mxPoint x="720" y="370" as="targetPoint" />
          </mxGeometry>
        </mxCell>
        <mxCell id="QkpR4-OSLrmcSBi-XT8--21" value="&lt;span style=&quot;background-color: rgb(230, 230, 230);&quot;&gt;Combines pattern &amp;amp; sentiment to make prediction&lt;/span&gt;" style="text;html=1;align=center;verticalAlign=middle;resizable=0;points=[];autosize=1;strokeColor=none;fillColor=none;rotation=-45;" vertex="1" parent="1">
          <mxGeometry x="975" y="420" width="290" height="30" as="geometry" />
        </mxCell>
        <mxCell id="QkpR4-OSLrmcSBi-XT8--23" value="Store pattern" style="text;html=1;align=center;verticalAlign=middle;resizable=0;points=[];autosize=1;strokeColor=none;fillColor=none;rotation=45;" vertex="1" parent="1">
          <mxGeometry x="1265" y="460" width="90" height="30" as="geometry" />
        </mxCell>
        <mxCell id="QkpR4-OSLrmcSBi-XT8--24" value="" style="endArrow=none;html=1;rounded=0;entryX=1;entryY=0.5;entryDx=0;entryDy=0;exitX=0.5;exitY=0.5;exitDx=0;exitDy=0;exitPerimeter=0;" edge="1" parent="1" source="QkpR4-OSLrmcSBi-XT8--16" target="QkpR4-OSLrmcSBi-XT8--8">
          <mxGeometry width="50" height="50" relative="1" as="geometry">
            <mxPoint x="670" y="420" as="sourcePoint" />
            <mxPoint x="720" y="370" as="targetPoint" />
          </mxGeometry>
        </mxCell>
        <mxCell id="QkpR4-OSLrmcSBi-XT8--25" value="Retrieve patterns" style="text;html=1;align=center;verticalAlign=middle;resizable=0;points=[];autosize=1;strokeColor=none;fillColor=none;rotation=30;" vertex="1" parent="1">
          <mxGeometry x="1245" y="510" width="110" height="30" as="geometry" />
        </mxCell>
        <mxCell id="QkpR4-OSLrmcSBi-XT8--26" value="" style="endArrow=none;html=1;rounded=0;entryX=0.5;entryY=0.5;entryDx=0;entryDy=0;entryPerimeter=0;exitX=0;exitY=0.5;exitDx=0;exitDy=0;" edge="1" parent="1" source="QkpR4-OSLrmcSBi-XT8--11" target="QkpR4-OSLrmcSBi-XT8--4">
          <mxGeometry width="50" height="50" relative="1" as="geometry">
            <mxPoint x="670" y="420" as="sourcePoint" />
            <mxPoint x="720" y="370" as="targetPoint" />
          </mxGeometry>
        </mxCell>
        <mxCell id="QkpR4-OSLrmcSBi-XT8--28" value="" style="endArrow=none;html=1;rounded=0;" edge="1" parent="1">
          <mxGeometry width="50" height="50" relative="1" as="geometry">
            <mxPoint x="515" y="490" as="sourcePoint" />
            <mxPoint x="515" y="320" as="targetPoint" />
          </mxGeometry>
        </mxCell>
        <mxCell id="QkpR4-OSLrmcSBi-XT8--29" value="Send prediction" style="text;html=1;align=center;verticalAlign=middle;resizable=0;points=[];autosize=1;strokeColor=none;fillColor=none;rotation=45;" vertex="1" parent="1">
          <mxGeometry x="740" y="435" width="110" height="30" as="geometry" />
        </mxCell>
        <mxCell id="QkpR4-OSLrmcSBi-XT8--30" value="Trades based on prediction" style="text;html=1;align=center;verticalAlign=middle;whiteSpace=wrap;rounded=0;" vertex="1" parent="1">
          <mxGeometry x="414" y="380" width="100" height="30" as="geometry" />
        </mxCell>
      </root>
    </mxGraphModel>
  </diagram>
</mxfile>
